<svg xmlns:xlink="http://www.w3.org/1999/xlink" xmlns="http://www.w3.org/2000/svg" viewBox="0 0 266.4 59.32">
    <defs>
        <style>
            .a{fill:none;}.b{clip-path:url(#a);}.c{fill:url(#b);}.d{fill:url(#c);}.e{fill:url(#d);}.f{fill:url(#e);}.g{fill:url(#f);}.h{fill:#122333;}
        </style>
        <clipPath id="a" transform="translate(0 0)">
            <rect class="a" width="266.4" height="59.32"/>
        </clipPath>
        <linearGradient id="b" x1="38.74" y1="392" x2="38.74" y2="332.68"
                        gradientTransform="matrix(1, 0, 0, -1, 0, 392)" gradientUnits="userSpaceOnUse">
            <stop offset="0" stop-color="#003c8c"/>
            <stop offset="1" stop-color="#338aff"/>
        </linearGradient>
        <linearGradient id="c" x1="20.8" y1="392" x2="20.8" y2="332.68" xlink:href="#b"/>
        <linearGradient id="d" x1="56.42" y1="392" x2="56.42" y2="332.68" xlink:href="#b"/>
        <linearGradient id="e" x1="20.92" y1="392" x2="20.92" y2="332.68" xlink:href="#b"/>
        <linearGradient id="f" x1="9.09" y1="392" x2="9.09" y2="332.68" xlink:href="#b"/>
    </defs>
    <title>Europarts Ukraine Logo</title>
    <g class="b">
        <path class="c"
              d="M47.22,17.79a9.09,9.09,0,1,0-11.48-6.63,7.75,7.75,0,0,1-4.45,9.54A9,9,0,0,0,28,21.9a9.16,9.16,0,0,0,3.42,16.9A7.78,7.78,0,0,1,36,48.29a9.09,9.09,0,1,0,11.38-6.8,7.78,7.78,0,0,1-6.14-8.74,9,9,0,0,0,.25-5v0c-.06-.25-.12-.49-.2-.74a7.77,7.77,0,0,1,5.94-9.18Z"
              transform="translate(0 0)"/>
        <path class="d" d="M28.67,13.7A9.08,9.08,0,1,1,25.35,1.29,9.08,9.08,0,0,1,28.67,13.7Z"
              transform="translate(0 0)"/>
        <path class="e" d="M51.88,37.59a9.09,9.09,0,1,0-3.33-12.41A9.09,9.09,0,0,0,51.88,37.59Z"
              transform="translate(0 0)"/>
        <path class="f" d="M16.38,58a9.09,9.09,0,1,0-3.33-12.41A9.08,9.08,0,0,0,16.38,58Z" transform="translate(0 0)"/>
        <path class="g" d="M4.54,37.32A9.09,9.09,0,1,0,1.22,24.91,9.1,9.1,0,0,0,4.54,37.32Z"
              transform="translate(0 0)"/>
        <path class="h"
              d="M93,40.26q-7,.63-11.54.63a6.14,6.14,0,0,1-4.5-1.44A6.16,6.16,0,0,1,75.51,35V25q0-3.27,1.47-4.74t4.77-1.5H93v4.37H83A1.66,1.66,0,0,0,81.12,25v2.65h8.3V32h-8.3v3a1.62,1.62,0,0,0,.41,1.15,1.54,1.54,0,0,0,1.09.41h1.44l1.62-.06,1.68-.07q.87,0,2.22-.12l3.4-.22Z"
              transform="translate(0 0)"/>
        <path class="h"
              d="M109.51,18.74h5.61V34.65q0,3.27-1.49,4.77t-4.74,1.47h-7.18q-3.27,0-4.77-1.47t-1.47-4.77V18.74h5.62V34.65A1.65,1.65,0,0,0,103,36.52h4.68a1.65,1.65,0,0,0,1.87-1.87Z"
              transform="translate(0 0)"/>
        <path class="h"
              d="M118.87,18.74H132q3.28,0,4.75,1.5T138.2,25v2.81a7.79,7.79,0,0,1-.87,4,4.12,4.12,0,0,1-2.71,1.9l3.89,6.86h-6.08L128.85,34h-4.37v6.55h-5.61ZM132.59,25a1.65,1.65,0,0,0-1.87-1.87h-6.24v6.55h6.24a1.66,1.66,0,0,0,1.87-1.87Z"
              transform="translate(0 0)"/>
        <path class="h"
              d="M155.35,24.67a1.65,1.65,0,0,0-1.87-1.87h-5.31a1.65,1.65,0,0,0-1.87,1.87v10a1.65,1.65,0,0,0,1.87,1.87h5.31a1.65,1.65,0,0,0,1.87-1.87Zm5.61,10q0,3.27-1.5,4.77t-4.74,1.47h-7.79q-3.28,0-4.78-1.47t-1.46-4.77v-10q0-3.29,1.46-4.74t4.78-1.5h7.79q3.28,0,4.74,1.5t1.5,4.74Z"
              transform="translate(0 0)"/>
        <path class="h"
              d="M164.1,18.74h13.09q3.28,0,4.74,1.5t1.5,4.74V28.1q0,3.27-1.5,4.77t-4.74,1.47h-7.48v6.23H164.1ZM177.82,25A1.65,1.65,0,0,0,176,23.11h-6.24V30H176a1.65,1.65,0,0,0,1.87-1.87Z"
              transform="translate(0 0)"/>
        <path class="h" d="M188.28,40.57H182.2l8.26-21.83h6.24L205,40.57h-6.08l-1.4-3.89h-7.8Zm2.81-8h5l-2.49-7.33Z"
              transform="translate(0 0)"/>
        <path class="h"
              d="M206.52,18.74h13.1q3.27,0,4.74,1.5t1.5,4.74v2.81a7.79,7.79,0,0,1-.87,4,4.15,4.15,0,0,1-2.72,1.9l3.9,6.86h-6.08L216.5,34h-4.36v6.55h-5.62ZM220.24,25a1.65,1.65,0,0,0-1.87-1.87h-6.23v6.55h6.23a1.65,1.65,0,0,0,1.87-1.87Z"
              transform="translate(0 0)"/>
        <path class="h" d="M239.57,40.57H234V23.11h-6.55V18.74h18.71v4.37h-6.55Z" transform="translate(0 0)"/>
        <path class="h"
              d="M247.65,36.05q8.55.47,11.58.47a1.53,1.53,0,0,0,1.12-.41,1.55,1.55,0,0,0,.44-1.15V32.15h-7.18q-3.27,0-4.77-1.46t-1.47-4.77V25q0-3.27,1.47-4.74t4.77-1.5h10.95v4.37h-9.7A1.65,1.65,0,0,0,253,25v.62a1.65,1.65,0,0,0,1.87,1.87h5.61A6.1,6.1,0,0,1,265,28.91a6.12,6.12,0,0,1,1.44,4.49V35A6.12,6.12,0,0,1,265,39.45a6.1,6.1,0,0,1-4.49,1.44c-1.06,0-2.18,0-3.36-.07l-2.87-.12c-2.12-.11-4.32-.25-6.59-.44Z"
              transform="translate(0 0)"/>
    </g>
</svg>
