<svg viewBox="0 0 155 26" width="155" xmlns="http://www.w3.org/2000/svg">
    <g fill="none" fill-rule="evenodd">
        <path fill="#75AF26"
              d="M29.36 22.386l-3.814-.004.014-13.277 13.73.014-.014 13.277-3.814-.004.011-10.698-6.102-.005zM44.482 17.564c.003-2.692 1.69-3.223 2.753-3.222 1.04.001 2.727.536 2.724 3.228-.002 1.67-.72 3.262-2.73 3.26-2.058-.003-2.75-1.597-2.747-3.266zm-3.348-4.802l-.014 13.143 3.514.003.005-4.496c1.177 1.256 3.096 1.352 3.558 1.352 3.352.004 5.411-2.098 5.414-5.154.003-3.186-2.028-5.198-5.333-5.2-.833-.002-2.451.13-3.792 1.514h-.07l.025-1.159-3.307-.003zM62.322 21.261c-1.295 1.195-2.545 1.516-3.931 1.515-3.791-.005-3.927-2.811-3.926-3.968l.007-6.032 3.513.004-.005 5.576c-.003 1.916.667 2.485 1.961 2.486 2.219.002 2.383-1.952 2.384-2.652l.005-5.406 3.514.004-.01 9.635-3.513-.004v-1.158zM70.88 14.728l1.896.002c.993 0 1.848.153 1.848.949-.002.872-1.342.89-1.919.89l-1.827-.002.002-1.84zm-3.51-1.94l-.01 9.637 6.98.007c2.543.002 4.3-.492 4.302-2.462.001-1.517-.853-2.181-2.795-2.525v-.057c1.271-.17 2.38-.946 2.382-2.255.002-2.333-2.77-2.336-3.857-2.337l-7.002-.007zm3.506 5.581l2.15.002c1.664.002 2.01.495 2.01 1.14-.001.416-.232.985-1.966.984l-2.196-.003.002-2.123zM87.149 18.462c-.002 1.934-1.713 2.406-2.569 2.405-.646 0-1.802-.209-1.801-1.121 0-1.082 1.319-1.287 2.059-1.381 1.362-.19 1.248-.133 2.312-.51l-.001.607zm-4.067-2.546c.002-1.423 1.527-1.535 2.152-1.534.394 0 1.85.02 1.895 1.271v.267c-.071.949-.996.756-3.586 1.077-2.126.282-4.368.812-4.37 3.01-.001.798.343 2.79 4.087 2.794 1.434.001 3.006-.357 3.931-1.306h.07l.3.95 3.697.004v-.17c-.668-.135-.716-.781-.69-1.822l.074-4.402c.023-1.117-.09-3.603-5.382-3.608-1.272-.001-5.362.108-5.528 3.466l3.35.003zM91.036 14.748l.002-1.936 11.279.012-.003 1.936-3.883-.004-.008 7.7-3.513-.003.008-7.7zM106.798 16.698l3.166.003c.923 0 2.772.098 2.77 1.692 0 1.252-1.342 1.495-2.844 1.494l-3.096-.003.004-3.186zm.005-4.93l8.759.008.002-2.58-12.574-.013-.013 13.277 7.72.008c3.746.004 6.15-1.283 6.153-3.995.004-4.248-4.803-4.348-6.144-4.35l-3.906-.003.003-2.353zM125.493 18.5c-.002 1.935-1.712 2.407-2.567 2.407-.648-.002-1.801-.21-1.801-1.123.001-1.082 1.318-1.286 2.058-1.38 1.363-.19 1.248-.133 2.31-.51v.607zm-4.064-2.545c.002-1.423 1.526-1.535 2.15-1.534.394 0 1.85.02 1.896 1.271v.267c-.071.949-.996.756-3.586 1.078-2.126.281-4.367.811-4.37 3.01 0 .797.344 2.79 4.088 2.793 1.433 0 3.005-.357 3.93-1.307h.07l.3.95 3.698.004v-.17c-.671-.134-.717-.78-.693-1.822l.075-4.401c.024-1.117-.09-3.602-5.383-3.608-1.27-.001-5.362.108-5.527 3.466l3.352.003zM133.996 22.492l-3.513-.004.01-9.635 3.513.003-.004 3.624 4.23.005.004-3.624 3.514.003-.01 9.636-3.514-.004.004-4.077-4.23-.005zM150.625 12.873l3.907.004-4.836 4.509 5.055 5.128-4.114-.004-3.786-4.216h-.068l-.004 4.212-3.515-.004.011-9.636 3.514.003-.005 3.87h.068z"/>
        <path fill="#000" d="M0 22.388l8.801.009.01-8.663-8.802-.009z"/>
        <path
            d="M.034.23L.023 11.016l2.326.002c6.124.007 9.226 3.067 9.22 9.096l-.003 2.29 10.953.01.024-22.16L.034.231zm17.85 4.6l-.013 12.998-1.796-.002c-.768-6.428-4.867-10.471-11.395-11.24l.002-1.77 13.202.014z"
            fill="#75AF26"/>
    </g>
</svg>
